<?xml version="1.0" encoding="utf-8"?>
<!-- Generator: Adobe Illustrator 26.0.3, SVG Export Plug-In . SVG Version: 6.00 Build 0)  -->
<svg version="1.1" id="레이어_1" xmlns="http://www.w3.org/2000/svg" xmlns:xlink="http://www.w3.org/1999/xlink" x="0px"
	 y="0px" viewBox="0 0 350 350" style="enable-background:new 0 0 350 350;" xml:space="preserve">
<style type="text/css">
	.st0{fill:url(#SVGID_1_);}
	.st1{fill:url(#패스_801_00000148654738372925541850000006966201776647051698_);}
	.st2{fill:url(#패스_802_00000181062992926880609710000006438328696696531121_);}
	.st3{fill:url(#패스_803_00000064355960804136815360000012560026031808866994_);}
	.st4{fill:url(#패스_804_00000054263506232717484630000003850247468259718838_);}
</style>
<g>
	<g id="Symbol_00000008852320608426084490000011251339137970395269_">
		<g>
			<linearGradient id="SVGID_1_" gradientUnits="userSpaceOnUse" x1="64.6759" y1="284.8201" x2="283.8752" y2="65.6208">
				<stop  offset="0.4" style="stop-color:#00A6D7"/>
				<stop  offset="1" style="stop-color:#00DEB4"/>
			</linearGradient>
			<path class="st0" d="M306.14,142.91c-7.48-3.15-13.11-7.83-15.97-15.44c-2.92-7.75-1.18-15.01,2.29-22.36
				c-12.41-0.5-21.29-5.72-25.1-17.34c-3.88-11.81,0.98-21.12,10.04-28.63C226.66,13.35,145.84,4.88,84.18,48.89
				C21.64,93.53,1.47,176.05,36.01,245.16c33.78,67.6,113.41,100.88,186.31,77.21c72.88-23.66,106.53-90.23,106.91-140.85
				C308.46,181.85,295.98,161.36,306.14,142.91z M127.3,174.06c-0.07-26.14,21.21-47.58,47.34-47.71
				c26.26-0.13,47.87,21.27,47.94,47.47c0.07,26.11-21.25,47.55-47.39,47.64C148.76,221.55,127.37,200.39,127.3,174.06z"/>
		</g>
	</g>
	
		<linearGradient id="패스_801_00000061473899904903493280000008126093576588286373_" gradientUnits="userSpaceOnUse" x1="-656.4689" y1="1350.4395" x2="-624.8724" y2="1346.9052" gradientTransform="matrix(12.2849 0 0 -14.9915 8051.6411 20272.4473)">
		<stop  offset="0" style="stop-color:#02DAB6"/>
		<stop  offset="1" style="stop-color:#00A6D7"/>
	</linearGradient>
	
		<path id="패스_801_00000181796423754408921950000009693250431601600405_" style="fill:url(#패스_801_00000061473899904903493280000008126093576588286373_);" d="
		M42.47,34.15c-1.07-1.61-2.65-2.82-4.48-3.42c1.13-0.53,2.13-1.28,2.96-2.21c1.26-1.63,1.89-3.65,1.8-5.7
		c0.06-2.11-0.57-4.19-1.78-5.92c-2.49-2.92-6.23-4.47-10.06-4.15H12.16v38.8h17.49c1.84,0.02,3.68-0.16,5.48-0.52
		c2.98-0.58,5.57-2.4,7.13-5c1.16-1.85,1.76-4,1.73-6.19C44.04,37.83,43.52,35.86,42.47,34.15z M19.9,19.48h8.44
		c1.55-0.04,3.1,0.16,4.59,0.61c1.4,0.61,2.24,2.06,2.07,3.58c0.14,1.34-0.46,2.65-1.58,3.41c-1.25,0.69-2.67,1.03-4.1,0.96h-9.43
		L19.9,19.48z M33.24,44.12c-1.24,0.51-2.58,0.75-3.93,0.68H19.9V34.46h9.55c1.33-0.05,2.65,0.18,3.89,0.66
		c1.62,0.72,2.61,2.38,2.47,4.15C36.03,41.26,35.01,43.18,33.24,44.12z"/>
	
		<linearGradient id="패스_802_00000044150857069676484310000005708132416509782440_" gradientUnits="userSpaceOnUse" x1="-642.7135" y1="1351.1827" x2="-613.9297" y2="1347.6913" gradientTransform="matrix(13.319 0 0 -14.975 8768.5576 20249.8535)">
		<stop  offset="0" style="stop-color:#02DAB6"/>
		<stop  offset="1" style="stop-color:#00A6D7"/>
	</linearGradient>
	
		<path id="패스_802_00000104673257461811177130000010113215642444599726_" style="fill:url(#패스_802_00000044150857069676484310000005708132416509782440_);" d="
		M328.72,12.98h9.07l-12.82,23.96v14.37h-8.01V36.94L303.7,12.98h9.44l7.96,16.7L328.72,12.98z"/>
	
		<linearGradient id="패스_803_00000101784137164484525820000006959209687784236708_" gradientUnits="userSpaceOnUse" x1="-673.1121" y1="1332.7734" x2="-641.1039" y2="1329.2374" gradientTransform="matrix(12.13 0 0 -14.976 8005.8989 20251.2207)">
		<stop  offset="0" style="stop-color:#02DAB6"/>
		<stop  offset="1" style="stop-color:#00A6D7"/>
	</linearGradient>
	
		<path id="패스_803_00000158027715378557030690000012950714668208217991_" style="fill:url(#패스_803_00000101784137164484525820000006959209687784236708_);" d="
		M43.62,298.48v6.88H32v31.95h-8.17v-31.95H12.17v-6.87H43.62z"/>
	
		<linearGradient id="패스_804_00000124123720026234702270000006150615515482165660_" gradientUnits="userSpaceOnUse" x1="-656.0845" y1="1333.3409" x2="-622.1214" y2="1329.8309" gradientTransform="matrix(11.346 0 0 -14.973 7511.7983 20247.1211)">
		<stop  offset="0" style="stop-color:#02DAB6"/>
		<stop  offset="1" style="stop-color:#00A6D7"/>
	</linearGradient>
	
		<path id="패스_804_00000083077378283240470980000016611677514423439498_" style="fill:url(#패스_804_00000124123720026234702270000006150615515482165660_);" d="
		M336.91,305.33h-20.39v8.18h18.72v6.69h-18.72v9.91h21.33v6.93h-29.2v-38.53h28.26V305.33z"/>
</g>
</svg>
